<svg width="66" height="67" viewBox="0 0 66 67" fill="none" xmlns="http://www.w3.org/2000/svg">
<path d="M65.2143 1.48035C64.6274 0.895254 63.7902 0.56131 62.9129 0.56131H3.08912C2.21181 0.56131 1.37466 0.895254 0.787729 1.48035C0.200797 2.06544 -0.0772232 2.84648 0.0185393 3.62476L6.82077 58.3336C6.95669 59.4459 7.83709 60.3759 9.04184 60.6823L32.1484 66.5801C32.4264 66.6519 32.7137 66.6877 32.9979 66.6877C33.2821 66.6877 33.5694 66.6519 33.8474 66.5801L56.954 60.6823C58.1588 60.3759 59.0361 59.4459 59.1751 58.3336L65.9804 3.62476C66.0793 2.84648 65.8012 2.06544 65.2143 1.48035ZM50.3896 21.0671H22.8038L23.4587 28.0827H49.7255L47.7546 48.8093L33.0103 52.9988L32.8651 52.9574L18.2845 48.8038L17.4875 40.3586H24.6295L24.9415 43.6401L33.0875 45.2436L41.0914 43.6373L41.9409 34.7699H16.95L15.0162 14.3606H51.0322L50.3896 21.0671Z" fill="#FFA500"/>
</svg>
