<svg width="39" height="39" viewBox="0 0 39 39" fill="none" xmlns="http://www.w3.org/2000/svg">
<path d="M19.6154 0.653809C9.22396 0.653809 0.769287 9.10848 0.769287 19.5C0.769287 29.8914 9.22396 38.3461 19.6154 38.3461C30.0069 38.3461 38.4616 29.8914 38.4616 19.5C38.4616 9.10848 30.0069 0.653809 19.6154 0.653809ZM14.7821 6.45262H24.4459C28.9762 6.45262 32.6628 10.1378 32.6628 14.6667V24.3304C32.6628 28.8607 28.9776 32.5473 24.4487 32.5473H14.785C10.2547 32.5473 6.5681 28.8621 6.5681 24.3333V14.6695C6.5681 10.1392 10.2533 6.45262 14.7821 6.45262ZM14.7821 9.35203C11.8523 9.35203 9.46751 11.7382 9.46751 14.6695V24.3333C9.46751 27.2631 11.8537 29.6479 14.785 29.6479H24.4487C27.3786 29.6479 29.7634 27.2617 29.7634 24.3304V14.6667C29.7634 11.7368 27.3772 9.35203 24.4459 9.35203H14.7821ZM26.3826 11.7673C26.9161 11.7673 27.3481 12.1993 27.3481 12.7328C27.3481 13.2663 26.9161 13.7011 26.3826 13.7011C25.8491 13.7011 25.4143 13.2663 25.4143 12.7328C25.4143 12.1993 25.8491 11.7673 26.3826 11.7673ZM19.6154 12.2514C23.6123 12.2514 26.864 15.5031 26.864 19.5C26.864 23.4968 23.6123 26.7485 19.6154 26.7485C15.6186 26.7485 12.3669 23.4968 12.3669 19.5C12.3669 15.5031 15.6186 12.2514 19.6154 12.2514ZM19.6154 15.1508C18.462 15.1508 17.3558 15.6091 16.5402 16.4247C15.7245 17.2403 15.2663 18.3465 15.2663 19.5C15.2663 20.6534 15.7245 21.7596 16.5402 22.5752C17.3558 23.3909 18.462 23.8491 19.6154 23.8491C20.7689 23.8491 21.8751 23.3909 22.6907 22.5752C23.5063 21.7596 23.9646 20.6534 23.9646 19.5C23.9646 18.3465 23.5063 17.2403 22.6907 16.4247C21.8751 15.6091 20.7689 15.1508 19.6154 15.1508Z" fill="white" fill-opacity="0.8"/>
</svg>
