<svg width="66" height="68" viewBox="0 0 66 68" fill="none" xmlns="http://www.w3.org/2000/svg">
<path d="M60 0.936768H6C2.685 0.936768 0 3.62691 0 6.94826V61.0517C0 64.3731 2.685 67.0632 6 67.0632H60C63.315 67.0632 66 64.3731 66 61.0517V6.94826C66 3.62691 63.315 0.936768 60 0.936768ZM33 50.1709C33 55.5121 29.73 58.5058 24.3 58.5058C18.936 58.5058 15.519 55.3648 15.519 50.2851H21.33C21.345 52.1697 22.467 53.36 24.201 53.36C25.983 53.36 26.94 52.2359 26.94 50.1198V33.994H33V50.1709ZM49.443 58.5058C43.416 58.5058 39.624 55.6624 39.522 51.0636H45.3C45.447 52.8009 47.178 53.907 49.689 53.907C51.951 53.907 53.505 52.816 53.505 51.244C53.505 49.9214 52.464 49.2091 49.74 48.665L46.605 48.0368C42.246 47.2102 40.002 44.8297 40.002 41.0755C40.002 36.4106 43.734 33.3507 49.476 33.3507C55.056 33.3507 58.917 36.3775 59.016 40.793H53.421C53.289 39.1068 51.687 37.9315 49.554 37.9315C47.427 37.9315 46.026 38.9414 46.026 40.5285C46.026 41.836 47.082 42.5964 49.59 43.0924L52.656 43.6875C57.363 44.5982 59.475 46.7293 59.475 50.5166C59.478 55.4971 55.683 58.5058 49.443 58.5058Z" fill="#FCF55C"/>
</svg>
