<svg width="68" height="67" viewBox="0 0 68 67" fill="none" xmlns="http://www.w3.org/2000/svg">
<path d="M66.3307 0.919036C65.7338 0.333944 64.8823 0 63.99 0H3.142C2.24968 0 1.39819 0.333944 0.801215 0.919036C0.204235 1.50413 -0.0785453 2.28517 0.0188567 3.06345L6.93754 57.7723C7.07579 58.8845 7.97126 59.8146 9.19664 60.121L32.6988 66.0188C32.9816 66.0906 33.2738 66.1264 33.5628 66.1264C33.8519 66.1264 34.1441 66.0906 34.4269 66.0188L57.929 60.121C59.1544 59.8146 60.0468 58.8845 60.1881 57.7723L67.11 3.06345C67.2105 2.28517 66.9277 1.50413 66.3307 0.919036ZM50.8973 27.8029L49.4959 47.9085L33.6665 52.4541L17.8371 47.9085L17.237 38.2932H25.2491L25.4502 42.6648L33.6665 45.1128L41.8829 42.6648L42.483 34.7992H24.8501L24.451 27.8057H42.8852L43.4853 20.8122H15.8325L15.2324 13.8159H51.8995L50.8973 27.8029Z" fill="#3483CB"/>
</svg>
